<svg width="815" height="40" viewBox="0 0 815 40" fill="none" xmlns="http://www.w3.org/2000/svg">
<g clip-path="url(#clip0_5_3917)">
<path d="M6.74876 18.0262C3.37037 18.0262 0.631714 20.9721 0.631714 24.6069C0.631714 28.2405 3.37037 31.1867 6.74876 31.1867C9.21543 31.1867 11.3364 29.6123 12.3038 27.3492L13.7571 28.5546C13.7571 28.5546 24.4367 28.6366 25.0233 28.2801C25.0233 28.2801 23.698 24.3869 25.3802 22.7413C25.5573 22.568 25.7799 22.3704 26.0247 22.1611C25.7426 22.917 25.5842 23.7408 25.5842 24.6063C25.5842 28.2406 28.3226 31.186 31.701 31.186C35.0794 31.186 37.8175 28.2393 37.8175 24.6063C37.8175 20.9715 35.0787 18.0263 31.701 18.0263C31.6455 18.0263 31.5926 18.0338 31.5373 18.035C31.9792 17.7265 32.2611 17.5328 32.2611 17.5328L31.8024 17.0938C31.8024 17.0938 33.1278 16.7653 32.8225 16.0521C32.5162 15.3388 29.3051 11.062 29.3051 11.062C29.3051 11.062 29.8739 9.74573 28.6974 8.81348L28.1324 10.1296C28.1324 10.1296 26.6923 9.06024 26.119 9.26616C25.5455 9.47148 24.6858 9.57466 24.4173 10.0268L24.15 10.2943C24.15 10.2943 24.0743 10.7676 24.513 11.4667C24.513 11.4667 28.9293 12.9266 29.1392 13.9958C29.1392 13.9958 29.4455 14.675 28.1261 14.8386L27.8591 15.2092L27.151 15.2502L25.8709 12.1038C25.8709 12.1038 24.6466 12.4533 24.0163 12.9876L24.1119 13.5219C24.1119 13.5219 18.9699 9.75943 14.1333 15.3317C14.1333 15.3317 10.5586 16.4419 8.05441 13.0287C8.05441 13.0287 8.01628 11.9184 1.97573 12.1241L2.39649 12.5971C2.39649 12.5971 1.97573 12.6381 1.80396 12.926C1.63218 13.2135 1.89947 13.522 3.27605 13.522C3.27605 13.522 6.39256 17.3466 8.78185 17.1209L12.1841 18.8895L13.6945 21.6654C13.6945 21.6654 13.6972 21.9038 13.7128 22.2686C13.3623 22.3489 12.9693 22.438 12.5523 22.5332C11.744 19.916 9.45374 18.0262 6.74876 18.0262ZM31.7009 20.0426C34.0407 20.0426 35.9434 22.09 35.9434 24.6062C35.9434 27.1226 34.04 29.1693 31.7009 29.1693C29.3612 29.1693 27.4588 27.1219 27.4588 24.6062C27.4588 22.09 29.3613 20.0426 31.7009 20.0426ZM6.74876 29.1701C4.4096 29.1701 2.50625 27.1226 2.50625 24.6069C2.50625 22.09 4.4096 20.0433 6.74876 20.0433C8.54704 20.0433 10.0836 21.2552 10.6997 22.9578C8.45025 23.4724 6.21752 23.9844 6.21752 23.9844L6.50558 25.6911L10.9105 25.4818C10.5309 27.5803 8.81003 29.1701 6.74876 29.1701ZM14.0959 25.3301C14.221 25.7868 14.384 26.1499 14.5983 26.3057L12.6326 26.3884C12.7168 26.0645 12.7804 25.732 12.8187 25.3899L14.0959 25.3301Z" fill="black"/>
</g>
<g clip-path="url(#clip1_5_3917)">
<path d="M416.458 8.59546H391.082V23.9483H416.458V8.59546Z" fill="black"/>
<path d="M428.267 19.5748L425.659 13.2993H417.595V25.105H408.295H399.623H394.145V27.7889H396.754C396.733 27.9415 396.719 28.0963 396.719 28.255C396.719 29.9946 398.019 31.4048 399.624 31.4048C401.228 31.4048 402.528 29.9945 402.528 28.255C402.528 28.0963 402.514 27.9415 402.493 27.7889H405.426C405.405 27.9415 405.391 28.0963 405.391 28.255C405.391 29.9946 406.691 31.4048 408.296 31.4048C409.9 31.4048 411.2 29.9945 411.2 28.255C411.2 28.0963 411.186 27.9415 411.165 27.7889H417.596H418.166C418.145 27.9415 418.131 28.0963 418.131 28.255C418.131 29.9946 419.431 31.4048 421.036 31.4048C422.64 31.4048 423.94 29.9945 423.94 28.255C423.94 28.0963 423.926 27.9415 423.905 27.7889H428.267V19.5748ZM399.623 29.4878C398.995 29.4878 398.486 28.9358 398.486 28.255C398.486 28.0899 398.517 27.9328 398.571 27.7889C398.741 27.3391 399.148 27.0219 399.623 27.0219C400.099 27.0219 400.506 27.3391 400.676 27.7889C400.73 27.9328 400.76 28.0899 400.76 28.255C400.76 28.9358 400.251 29.4878 399.623 29.4878ZM408.295 29.4878C407.668 29.4878 407.158 28.9358 407.158 28.255C407.158 28.0899 407.189 27.9328 407.243 27.7889C407.413 27.3391 407.82 27.0219 408.295 27.0219C408.771 27.0219 409.178 27.3391 409.348 27.7889C409.402 27.9328 409.432 28.0899 409.432 28.255C409.432 28.9358 408.923 29.4878 408.295 29.4878ZM421.035 29.4878C420.407 29.4878 419.898 28.9358 419.898 28.255C419.898 28.0899 419.929 27.9328 419.983 27.7889C420.152 27.3391 420.559 27.0219 421.035 27.0219C421.511 27.0219 421.918 27.3391 422.087 27.7889C422.141 27.9328 422.172 28.0899 422.172 28.255C422.172 28.9358 421.663 29.4878 421.035 29.4878ZM419.515 19.4567C419.472 19.4567 419.436 19.4187 419.436 19.3718V15.1321C419.436 15.0852 419.471 15.0472 419.515 15.0472H424.479C424.584 15.0472 424.678 15.1139 424.72 15.2171L426.442 19.4567H419.515Z" fill="black"/>
</g>
<g clip-path="url(#clip2_5_3917)">
<path d="M617.393 16.8983L613.283 9.81543C612.827 9.03062 612.028 8.5542 611.168 8.5542H588.8C587.423 8.5542 586.307 9.75465 586.307 11.2358V26.3062C586.307 27.7873 587.423 28.9877 588.8 28.9877H589.454C590.084 30.434 591.441 31.4458 593.021 31.4458C594.602 31.4458 595.958 30.434 596.588 28.9877H613.213C613.843 30.434 615.2 31.4458 616.78 31.4458C618.359 31.4458 619.717 30.434 620.346 28.9877H621C622.376 28.9877 623.493 27.7873 623.493 26.3062V24.0751C623.493 20.3236 620.806 17.2264 617.393 16.8983ZM593.027 28.9564C592.126 28.9564 591.396 28.1707 591.396 27.2018C591.396 26.2329 592.126 25.4463 593.027 25.4463C593.928 25.4463 594.658 26.2329 594.658 27.2018C594.658 28.1707 593.928 28.9564 593.027 28.9564ZM607.947 18.7719V13.9173V11.2367H611.168L615.542 18.7719H607.947ZM616.779 28.9564C615.879 28.9564 615.148 28.1707 615.148 27.2018C615.148 26.2329 615.879 25.4463 616.779 25.4463C617.68 25.4463 618.411 26.2329 618.411 27.2018C618.411 28.1707 617.68 28.9564 616.779 28.9564Z" fill="black"/>
</g>
<g clip-path="url(#clip3_5_3917)">
<path d="M786.892 18.875C786.892 18.6139 786.989 18.3635 787.16 18.1789C787.332 17.9943 787.565 17.8906 787.807 17.8906C788.05 17.8906 788.283 17.9943 788.454 18.1789C788.626 18.3635 788.722 18.6139 788.722 18.875V19.2969H791.86V14.375C791.86 14.1139 791.764 13.8635 791.592 13.6789C791.42 13.4943 791.188 13.3906 790.945 13.3906H784.67C784.427 13.3906 784.194 13.4943 784.023 13.6789C783.851 13.8635 783.755 14.1139 783.755 14.375V19.2969H786.892V18.875Z" fill="black"/>
<path d="M803.364 19.1562L805.047 16.985C805.304 16.6518 805.626 16.3838 805.991 16.2001C806.355 16.0163 806.753 15.9213 807.156 15.9219H810.685V14.9375C810.685 14.6764 810.589 14.426 810.417 14.2414C810.246 14.0568 810.013 13.9531 809.77 13.9531H803.364V19.1562Z" fill="black"/>
<path d="M806.11 7.625C806.11 7.36397 806.013 7.11368 805.842 6.92911C805.67 6.74453 805.437 6.64077 805.195 6.64062H799.704C799.461 6.64077 799.229 6.74453 799.057 6.92911C798.885 7.11368 798.789 7.36397 798.789 7.625V11.9844H806.11V7.625Z" fill="black"/>
<path d="M801.534 13.9531H795.128C794.886 13.9531 794.653 14.0568 794.481 14.2414C794.31 14.426 794.213 14.6764 794.213 14.9375V19.2969H801.534V13.9531Z" fill="black"/>
<path d="M813.954 17.8906H807.156C807.021 17.8906 806.889 17.9224 806.767 17.9836C806.646 18.0449 806.539 18.1341 806.453 18.245L804.113 21.2656H782.578C782.441 21.2656 782.306 21.2988 782.182 21.3626C782.059 21.4264 781.95 21.5192 781.864 21.6342C781.779 21.7492 781.718 21.8834 781.687 22.027C781.656 22.1706 781.655 22.3199 781.685 22.4638L782.867 28.1844C783.17 29.6521 783.93 30.9648 785.02 31.9056C786.11 32.8464 787.466 33.3593 788.864 33.3594H806.001C807.291 33.3594 808.548 32.9229 809.594 32.1118C810.64 31.3007 811.422 30.1562 811.83 28.8403L814.822 19.1861C814.867 19.0381 814.88 18.8806 814.858 18.7264C814.836 18.5723 814.781 18.4259 814.696 18.2994C814.611 18.1729 814.5 18.0699 814.37 17.9988C814.241 17.9277 814.099 17.8907 813.954 17.8906Z" fill="black"/>
<path d="M790.814 10.4375C790.814 10.1764 790.718 9.92605 790.546 9.74144C790.375 9.55684 790.142 9.45312 789.899 9.45312H788.722V7.625C788.722 7.36393 788.626 7.11355 788.454 6.92894C788.283 6.74434 788.05 6.64062 787.807 6.64062C787.565 6.64062 787.332 6.74434 787.16 6.92894C786.989 7.11355 786.892 7.36393 786.892 7.625V9.45312H785.716C785.473 9.45312 785.24 9.55684 785.069 9.74144C784.897 9.92605 784.801 10.1764 784.801 10.4375V11.4219H790.814V10.4375Z" fill="black"/>
</g>
<g clip-path="url(#clip4_5_3917)">
<path d="M226.119 17.573C225.559 17.573 225.016 17.6452 224.494 17.7805L221.741 10.6715L224.13 9.815C224.7 9.61031 225.009 8.94664 224.818 8.33265C224.628 7.71874 224.012 7.38664 223.44 7.59156L219.865 8.87679C219.31 9.12578 219.047 9.81179 219.279 10.4092L219.963 12.1763L210.415 14.8468L209.434 12.3855H210.949C211.551 12.3855 212.038 11.8609 212.038 11.2137C212.038 10.5665 211.551 10.0418 210.949 10.0418H206.281C205.68 10.0418 205.192 10.5665 205.192 11.2137C205.192 11.8609 205.68 12.3855 206.281 12.3855H207.063L208.514 16.0257L206.402 18.6755C205.348 17.9768 204.107 17.573 202.781 17.573C198.963 17.573 195.857 20.9141 195.857 25.0209C195.857 29.1277 198.963 32.4688 202.781 32.4688C206.228 32.4688 209.095 29.7448 209.619 26.1928H213.283C213.631 26.1928 213.958 26.0139 214.163 25.7113L221.19 15.3445L222.484 18.6844C220.511 19.9983 219.195 22.3471 219.195 25.0209C219.195 29.1277 222.301 32.4687 226.119 32.4687C229.936 32.4687 233.043 29.1277 233.043 25.0209C233.043 20.9141 229.937 17.573 226.119 17.573ZM202.781 30.1252C200.164 30.1252 198.036 27.8354 198.036 25.0209C198.036 22.2065 200.164 19.9168 202.781 19.9168C203.565 19.9168 204.305 20.1239 204.958 20.4881L201.954 24.2584C201.677 24.6059 201.613 25.0949 201.791 25.5107C201.969 25.9265 202.355 26.1929 202.781 26.1929H207.398C206.904 28.4441 205.022 30.1252 202.781 30.1252ZM205.149 23.8491L209.47 18.4266L211.631 23.8491H205.149ZM213.53 22.6669L211.283 17.0256L218.775 14.9302L213.53 22.6669ZM226.119 30.1252C223.502 30.1252 221.374 27.8354 221.374 25.021C221.374 23.3233 222.149 21.8174 223.338 20.889L225.113 25.4717C225.344 26.0691 225.982 26.3516 226.538 26.1027C227.093 25.8537 227.356 25.1677 227.124 24.5703L225.348 19.9852C225.599 19.9409 225.856 19.9168 226.119 19.9168C228.735 19.9168 230.864 22.2066 230.864 25.0209C230.864 27.8353 228.735 30.1252 226.119 30.1252Z" fill="black"/>
</g>
<defs>
<clipPath id="clip0_5_3917">
<rect width="37.1857" height="40" fill="white" transform="translate(0.631714)"/>
</clipPath>
<clipPath id="clip1_5_3917">
<rect width="37.1857" height="40" fill="white" transform="translate(391.082)"/>
</clipPath>
<clipPath id="clip2_5_3917">
<rect width="37.1857" height="40" fill="white" transform="translate(586.307)"/>
</clipPath>
<clipPath id="clip3_5_3917">
<rect width="33.4672" height="36" fill="white" transform="translate(781.532 2)"/>
</clipPath>
<clipPath id="clip4_5_3917">
<rect width="37.1857" height="40" fill="white" transform="translate(195.857)"/>
</clipPath>
</defs>
</svg>
