<svg width="45" height="48" viewBox="0 0 45 48" fill="none" xmlns="http://www.w3.org/2000/svg">
<path d="M43.3729 22.9442C42.8375 21.7922 42.7482 20.9282 42.7482 20.4482C42.7482 19.3922 42.0342 18.5282 41.0525 18.4322C37.3042 18.0482 37.215 18.1442 36.858 18.0482C31.3248 16.1282 25.8808 15.2642 20.526 15.5522C20.169 15.5522 19.812 15.6482 19.4551 15.8402C16.8669 16.8962 14.8143 17.9522 13.4756 18.9122C13.0294 19.2002 12.5831 19.3922 12.0477 19.3922C9.54878 19.2002 2.85535 19.9682 1.60591 22.4642C0.713451 24.1922 0.53496 26.8802 1.15968 28.4162C1.51666 29.3762 2.58761 30.0482 3.56932 30.0482H3.83705C3.65856 29.5682 3.65856 29.0882 3.65856 28.5122C3.65856 25.2482 6.15744 22.6562 9.10255 22.6562C12.0477 22.6562 14.5465 25.3442 14.5465 28.5122C14.5465 28.9922 14.4573 29.4722 14.3681 29.8562L29.1829 29.7602C29.0936 29.3762 29.0936 28.9922 29.0936 28.6082C29.0936 25.3442 31.5925 22.7522 34.5376 22.7522C37.572 22.7522 39.9816 25.4402 39.9816 28.6082C39.9816 28.9922 39.9816 29.3762 39.8923 29.6642H40.6956C41.7665 29.6642 42.659 29.0882 43.1944 28.1282C43.9084 26.7842 43.9084 23.9042 43.3729 22.9442ZM23.6496 19.4882H16.3315C17.4024 18.9122 18.6519 18.0482 20.0798 17.4722C20.2583 17.3762 20.4368 17.3762 20.7045 17.3762H24.0958L23.6496 19.4882ZM25.4345 19.4882L25.7915 17.4722C28.6474 17.7602 31.5032 18.5282 34.3591 19.3922L25.4345 19.4882Z" fill="#EF2C2E"/>
<path d="M9.19128 32.5444C11.2439 32.5444 12.8504 30.7204 12.8504 28.6084C12.8504 26.4004 11.2439 24.6724 9.19128 24.6724C7.13863 24.6724 5.5322 26.4004 5.5322 28.6084C5.44296 30.8164 7.13863 32.5444 9.19128 32.5444Z" fill="#EF2C2E"/>
<path d="M34.537 32.5444C36.5897 32.5444 38.1961 30.7204 38.1961 28.6084C38.1961 26.4004 36.5005 24.6724 34.537 24.6724C32.4844 24.6724 30.878 26.4004 30.878 28.6084C30.878 30.8164 32.4844 32.5444 34.537 32.5444Z" fill="#EF2C2E"/>
</svg>
