<svg width="264" height="40" viewBox="0 0 264 40" fill="none" xmlns="http://www.w3.org/2000/svg">
<g clip-path="url(#clip0_2_3305)">
<path d="M40 20C40 8.95312 31.0469 0 20 0C8.95312 0 0 8.95312 0 20C0 31.0469 8.95312 40 20 40C20.1172 40 20.2344 40 20.3516 39.9922V24.4297H16.0547V19.4219H20.3516V15.7344C20.3516 11.4609 22.9609 9.13281 26.7734 9.13281C28.6016 9.13281 30.1719 9.26562 30.625 9.32812V13.7969H28C25.9297 13.7969 25.5234 14.7812 25.5234 16.2266V19.4141H30.4844L29.8359 24.4219H25.5234V39.2266C33.8828 36.8281 40 29.1328 40 20Z" fill="white"/>
</g>
<g clip-path="url(#clip1_2_3305)">
<path d="M86.5562 14.7594C86.4984 13.4953 86.2875 12.8086 86.1101 12.3516C85.875 11.7461 85.5937 11.3141 85.1398 10.8602C84.6859 10.4063 84.2539 10.125 83.6484 9.88986C83.1914 9.71251 82.5046 9.50157 81.2406 9.44376C79.8726 9.38126 79.4625 9.36798 76 9.36798C72.5375 9.36798 72.1273 9.38126 70.7593 9.44376C69.4953 9.50157 68.8085 9.71251 68.3515 9.88986C67.746 10.125 67.314 10.4063 66.8601 10.8602C66.4062 11.3141 66.125 11.7461 65.8898 12.3516C65.7125 12.8086 65.5015 13.4953 65.4437 14.7594C65.3812 16.1274 65.3679 16.5375 65.3679 20C65.3679 23.4625 65.3812 23.8727 65.4437 25.2406C65.5015 26.5047 65.7125 27.1914 65.8898 27.6484C66.125 28.2539 66.4062 28.6859 66.8601 29.1399C67.314 29.5938 67.746 29.875 68.3515 30.1102C68.8085 30.2875 69.4953 30.4984 70.7593 30.5563C72.1265 30.6188 72.5367 30.632 76 30.632C79.4632 30.632 79.8734 30.6188 81.2406 30.5563C82.5046 30.4984 83.1914 30.2875 83.6484 30.1102C84.2539 29.875 84.6859 29.5938 85.1398 29.1399C85.5937 28.6859 85.875 28.2539 86.1101 27.6484C86.2875 27.1914 86.4984 26.5047 86.5562 25.2406C86.6187 23.8727 86.632 23.4625 86.632 20C86.632 16.5375 86.6187 16.1274 86.5562 14.7594ZM76 26.6594C72.3218 26.6594 69.3406 23.6781 69.3406 20C69.3406 16.3219 72.3218 13.3406 76 13.3406C79.6781 13.3406 82.6593 16.3219 82.6593 20C82.6593 23.6781 79.6781 26.6594 76 26.6594ZM82.9226 14.6336C82.0632 14.6336 81.3664 13.9367 81.3664 13.0774C81.3664 12.218 82.0632 11.5211 82.9226 11.5211C83.782 11.5211 84.4789 12.218 84.4789 13.0774C84.4789 13.9367 83.782 14.6336 82.9226 14.6336ZM76 15.6774C73.6125 15.6774 71.6773 17.6125 71.6773 20C71.6773 22.3875 73.6125 24.3227 76 24.3227C78.3875 24.3227 80.3226 22.3875 80.3226 20C80.3226 17.6125 78.3875 15.6774 76 15.6774Z" fill="white"/>
<path d="M76 0C64.9547 0 56 8.95469 56 20C56 31.0453 64.9547 40 76 40C87.0453 40 96 31.0453 96 20C96 8.95469 87.0453 0 76 0ZM88.8906 25.3469C88.8281 26.7273 88.6086 27.6703 88.2883 28.4953C87.9563 29.3477 87.5133 30.0711 86.7922 30.7922C86.0711 31.5133 85.3477 31.9563 84.4953 32.2883C83.6703 32.6086 82.7273 32.8281 81.3469 32.8906C79.9641 32.9539 79.5219 32.9688 76 32.9688C72.4781 32.9688 72.0359 32.9539 70.6531 32.8906C69.2727 32.8281 68.3297 32.6086 67.5047 32.2883C66.6523 31.9563 65.9289 31.5133 65.2078 30.7922C64.4867 30.0711 64.0437 29.3477 63.7117 28.4953C63.3914 27.6703 63.1719 26.7273 63.1094 25.3469C63.0461 23.9641 63.0312 23.5219 63.0312 20C63.0312 16.4781 63.0461 16.0359 63.1094 14.6531C63.1719 13.2727 63.3914 12.3297 63.7117 11.5047C64.0437 10.6523 64.4867 9.92891 65.2078 9.20781C65.9289 8.48672 66.6523 8.04375 67.5047 7.71172C68.3297 7.39141 69.2727 7.17188 70.6531 7.10938C72.0359 7.04609 72.4781 7.03125 76 7.03125C79.5219 7.03125 79.9641 7.04609 81.3469 7.10938C82.7273 7.17188 83.6703 7.39141 84.4953 7.71172C85.3477 8.04375 86.0711 8.48672 86.7922 9.20781C87.5133 9.92891 87.9563 10.6523 88.2883 11.5047C88.6086 12.3297 88.8281 13.2727 88.8906 14.6531C88.9539 16.0359 88.9688 16.4781 88.9688 20C88.9688 23.5219 88.9539 23.9641 88.8906 25.3469Z" fill="white"/>
</g>
<g clip-path="url(#clip2_2_3305)">
<path d="M132 0C120.956 0 112 8.95599 112 20C112 31.044 120.956 40 132 40C143.044 40 152 31.044 152 20C152 8.95599 143.044 0 132 0ZM126.188 30.2344H121.317V15.5801H126.188V30.2344ZM123.753 13.5791H123.721C122.087 13.5791 121.03 12.4539 121.03 11.0477C121.03 9.60968 122.119 8.51562 123.785 8.51562C125.452 8.51562 126.477 9.60968 126.509 11.0477C126.509 12.4539 125.452 13.5791 123.753 13.5791ZM143.752 30.2344H138.881V22.3947C138.881 20.4245 138.176 19.0808 136.414 19.0808C135.068 19.0808 134.267 19.9872 133.915 20.8621C133.786 21.1752 133.754 21.6129 133.754 22.0508V30.2344H128.884C128.884 30.2344 128.948 16.955 128.884 15.5801H133.754V17.655C134.402 16.6565 135.56 15.2362 138.144 15.2362C141.349 15.2362 143.752 17.3306 143.752 21.8317V30.2344Z" fill="white"/>
</g>
<g clip-path="url(#clip3_2_3305)">
<path d="M185.226 23.2263L190.774 20.0079L185.226 16.7737V23.2263Z" fill="white"/>
<path d="M188 0C184.044 0 180.178 1.17298 176.889 3.37061C173.6 5.56824 171.036 8.69181 169.522 12.3463C168.009 16.0009 167.613 20.0222 168.384 23.9018C169.156 27.7814 171.061 31.3451 173.858 34.1421C176.655 36.9392 180.219 38.844 184.098 39.6157C187.978 40.3874 191.999 39.9913 195.654 38.4776C199.308 36.9638 202.432 34.4004 204.629 31.1114C206.827 27.8224 208 23.9556 208 20C208 14.6957 205.893 9.60859 202.142 5.85786C198.391 2.10714 193.304 0 188 0ZM198.526 23.5395C198.527 24.0626 198.424 24.5806 198.224 25.064C198.024 25.5473 197.731 25.9866 197.361 26.3566C196.991 26.7266 196.552 27.0201 196.069 27.2204C195.586 27.4206 195.068 27.5237 194.545 27.5237H181.455C180.932 27.5237 180.414 27.4206 179.931 27.2204C179.448 27.0201 179.009 26.7266 178.639 26.3566C178.269 25.9866 177.976 25.5473 177.776 25.064C177.576 24.5806 177.473 24.0626 177.474 23.5395V16.4605C177.473 15.9374 177.576 15.4194 177.776 14.936C177.976 14.4527 178.269 14.0134 178.639 13.6434C179.009 13.2734 179.448 12.9799 179.931 12.7796C180.414 12.5794 180.932 12.4763 181.455 12.4763H194.545C195.068 12.4763 195.586 12.5794 196.069 12.7796C196.552 12.9799 196.991 13.2734 197.361 13.6434C197.731 14.0134 198.024 14.4527 198.224 14.936C198.424 15.4194 198.527 15.9374 198.526 16.4605V23.5395Z" fill="white"/>
</g>
<g clip-path="url(#clip4_2_3305)">
<path d="M244 0C232.956 0 224 8.95599 224 20C224 31.044 232.956 40 244 40C255.044 40 264 31.044 264 20C264 8.95599 255.044 0 244 0Z" fill="white"/>
<path d="M233.055 8.49457L241.16 21.1865L233.004 31.5055H234.839L241.98 22.471L247.749 31.5055H253.996L245.435 18.0997L253.027 8.49457H251.191L244.615 16.8151L239.302 8.49457H233.055ZM235.754 10.0781H238.624L251.296 29.9217H248.427L235.754 10.0781Z" fill="#003087"/>
</g>
<defs>
<clipPath id="clip0_2_3305">
<rect width="40" height="40" fill="white"/>
</clipPath>
<clipPath id="clip1_2_3305">
<rect width="40" height="40" fill="white" transform="translate(56)"/>
</clipPath>
<clipPath id="clip2_2_3305">
<rect width="40" height="40" fill="white" transform="translate(112)"/>
</clipPath>
<clipPath id="clip3_2_3305">
<rect width="40" height="40" fill="white" transform="translate(168)"/>
</clipPath>
<clipPath id="clip4_2_3305">
<rect width="40" height="40" fill="white" transform="translate(224)"/>
</clipPath>
</defs>
</svg>
