<svg width="16" height="17" viewBox="0 0 16 17" fill="none" xmlns="http://www.w3.org/2000/svg">
<path d="M5.99992 15.1666H9.99992C13.3333 15.1666 14.6666 13.8333 14.6666 10.4999V6.49992C14.6666 3.16659 13.3333 1.83325 9.99992 1.83325H5.99992C2.66659 1.83325 1.33325 3.16659 1.33325 6.49992V10.4999C1.33325 13.8333 2.66659 15.1666 5.99992 15.1666Z" stroke="white" stroke-width="1.5" stroke-linecap="round" stroke-linejoin="round"/>
<path d="M6.00008 7.16667C6.73646 7.16667 7.33341 6.56971 7.33341 5.83333C7.33341 5.09695 6.73646 4.5 6.00008 4.5C5.2637 4.5 4.66675 5.09695 4.66675 5.83333C4.66675 6.56971 5.2637 7.16667 6.00008 7.16667Z" stroke="white" stroke-width="1.5" stroke-linecap="round" stroke-linejoin="round"/>
<path d="M1.78003 13.1333L5.0667 10.9266C5.59336 10.5733 6.35336 10.6133 6.8267 11.02L7.0467 11.2133C7.5667 11.66 8.4067 11.66 8.9267 11.2133L11.7 8.83329C12.22 8.38662 13.06 8.38662 13.58 8.83329L14.6667 9.76662" stroke="white" stroke-width="1.5" stroke-linecap="round" stroke-linejoin="round"/>
</svg>
